<svg xmlns="http://www.w3.org/2000/svg" xmlns:xlink="http://www.w3.org/1999/xlink" width="24" height="20" viewBox="0 0 24 19.51">
  <defs>
    <clipPath id="twitter" transform="translate(0 0)">
      <rect width="24" height="19.51" style="fill: none"/>
    </clipPath>
  </defs>
  <g style="clip-path: url(#twitter)">
    <path d="M24,2.32a10,10,0,0,1-2.83.78A5,5,0,0,0,23.29.37a10.16,10.16,0,0,1-3.13,1.18,4.92,4.92,0,0,0-8.51,3.36A5,5,0,0,0,11.78,6,13.93,13.93,0,0,1,1.64.91,4.82,4.82,0,0,0,1,3.39a4.92,4.92,0,0,0,2.19,4.1A4.9,4.9,0,0,1,.93,6.87v.06a4.92,4.92,0,0,0,3.95,4.83,5,5,0,0,1-2.21.09,4.94,4.94,0,0,0,4.6,3.42,9.87,9.87,0,0,1-6.1,2.1A10.44,10.44,0,0,1,0,17.3a14,14,0,0,0,7.56,2.21,13.9,13.9,0,0,0,14-14c0-.21,0-.42,0-.63A9.94,9.94,0,0,0,24,2.34Z" transform="translate(0 0)" style="fill: currentColor;"/>
  </g>
</svg>
