<svg xmlns="http://www.w3.org/2000/svg" xmlns:xlink="http://www.w3.org/1999/xlink" width="24" height="24" viewBox="0 0 24 24">
  <defs>
    <clipPath id="insta" transform="translate(0 0)">
      <rect width="24" height="24" style="fill: none"/>
    </clipPath>
  </defs>
  <g style="clip-path: url(#insta)">
    <path d="M12,0C8.74,0,8.33,0,7.05.07A8.85,8.85,0,0,0,4.14.63,5.88,5.88,0,0,0,2,2,5.86,5.86,0,0,0,.63,4.14,8.82,8.82,0,0,0,.07,7.05C0,8.33,0,8.74,0,12s0,3.67.07,4.95a8.86,8.86,0,0,0,.56,2.91A5.88,5.88,0,0,0,2,22a5.87,5.87,0,0,0,2.13,1.38,8.86,8.86,0,0,0,2.91.56C8.33,24,8.74,24,12,24s3.67,0,4.95-.07a8.89,8.89,0,0,0,2.91-.56,6.13,6.13,0,0,0,3.51-3.51,8.86,8.86,0,0,0,.56-2.91C24,15.67,24,15.26,24,12s0-3.67-.07-4.95a8.87,8.87,0,0,0-.56-2.91A5.87,5.87,0,0,0,22,2,5.85,5.85,0,0,0,19.86.63,8.84,8.84,0,0,0,16.95.07C15.67,0,15.26,0,12,0m0,2.16c3.2,0,3.59,0,4.85.07a6.61,6.61,0,0,1,2.23.41,3.73,3.73,0,0,1,1.38.9,3.72,3.72,0,0,1,.9,1.38,6.66,6.66,0,0,1,.41,2.23c.06,1.27.07,1.65.07,4.85s0,3.58-.07,4.85a6.76,6.76,0,0,1-.42,2.23,3.82,3.82,0,0,1-.9,1.38,3.76,3.76,0,0,1-1.38.9,6.69,6.69,0,0,1-2.24.41c-1.27.06-1.65.07-4.86.07s-3.59,0-4.86-.08a6.78,6.78,0,0,1-2.24-.42,3.72,3.72,0,0,1-1.38-.9,3.64,3.64,0,0,1-.9-1.38,6.82,6.82,0,0,1-.42-2.23c0-1.26-.06-1.65-.06-4.84s0-3.59.06-4.86A6.8,6.8,0,0,1,2.6,4.89a3.56,3.56,0,0,1,.9-1.38,3.55,3.55,0,0,1,1.38-.9A6.64,6.64,0,0,1,7.1,2.19c1.27,0,1.65-.06,4.86-.06Zm0,3.68A6.16,6.16,0,1,0,18.16,12,6.16,6.16,0,0,0,12,5.84M12,16a4,4,0,1,1,4-4,4,4,0,0,1-4,4M19.85,5.6a1.44,1.44,0,1,1-1.44-1.44A1.44,1.44,0,0,1,19.85,5.6" transform="translate(0 0)" style="fill: currentColor;"/>
  </g>
</svg>
