<svg xmlns="http://www.w3.org/2000/svg" xmlns:xlink="http://www.w3.org/1999/xlink" width="54" height="50" viewBox="0 0 54.19 49.53">
  <defs>
    <clipPath id="logo-rb">
      <rect width="54.19" height="49.53" style="fill: none"/>
    </clipPath>
  </defs>
  <g style="clip-path: url(#logo-rb)">
    <path d="M23.89,8.83a9.11,9.11,0,0,1-2,6.18,9.85,9.85,0,0,1-6,3l8.82,12.8h-5l-8-12.6H6.29v12.6H2.41V0H13.15q5.2,0,8,2.5a8.15,8.15,0,0,1,2.77,6.33m-11,6.72a7.4,7.4,0,0,0,5.27-1.69,5.85,5.85,0,0,0,1.79-4.46A5.78,5.78,0,0,0,18.18,5a7.05,7.05,0,0,0-5-1.64H6.29V15.54Z" style="fill: currentColor"/>
    <path d="M30.49,0H42q4.85,0,7.48,2.31a7.38,7.38,0,0,1,2.62,5.78,7.55,7.55,0,0,1-1.45,4.61,7.26,7.26,0,0,1-4.39,2.65,7.58,7.58,0,0,1,4.63,2.5,6.78,6.78,0,0,1,1.74,4.56q0,5.69-5.54,7.7a15.1,15.1,0,0,1-5,.74H30.49Zm3.87,13.78h7.55a6.9,6.9,0,0,0,4.54-1.4,4.72,4.72,0,0,0,1.69-3.85A4.71,4.71,0,0,0,46.5,4.71a7,7,0,0,0-4.58-1.37H34.36ZM42,27.46q3.53,0,5.05-1.42a4.93,4.93,0,0,0,1.52-3.77,4.64,4.64,0,0,0-1.67-3.75,7.46,7.46,0,0,0-4.9-1.4h-7.6V27.46Z" style="fill: currentColor"/>
    <rect y="46.53" width="54.19" height="3" style="fill: currentColor"/>
  </g>
</svg>
